<svg width="32" height="32" viewBox="0 0 32 32" fill="none" xmlns="http://www.w3.org/2000/svg">
<path fill-rule="evenodd" clip-rule="evenodd" d="M4.79359 4.79358C6.98974 2.59742 10.9816 2.73018 15.195 4.73933V0H16.805V4.73936C21.0184 2.73019 25.0103 2.59743 27.2064 4.79359C29.4026 6.98975 29.2699 10.9816 27.2607 15.195H32V16.805H27.2607C29.2698 21.0184 29.4026 25.0103 27.2064 27.2064C25.0103 29.4026 21.0184 29.2698 16.805 27.2607V32H15.195V27.2607C10.9816 29.2698 6.98976 29.4026 4.7936 27.2064C2.59744 25.0103 2.7302 21.0184 4.73936 16.805H0V15.195H4.73934C2.73018 10.9816 2.59743 6.98974 4.79359 4.79358ZM15.195 11.9748V7.48124C13.755 8.4064 12.3099 9.56244 10.9362 10.9361C9.56245 12.3098 8.4064 13.755 7.48124 15.195H11.9748C13.7533 15.195 15.195 13.7533 15.195 11.9748ZM16.805 24.5188C18.245 23.5937 19.6902 22.4376 21.0639 21.0639C22.4376 19.6902 23.5937 18.245 24.5188 16.805H20.0252C18.2467 16.805 16.805 18.2467 16.805 20.0252V24.5188ZM24.5188 15.195H20.0252C17.3575 15.195 15.195 17.3575 15.195 20.0252V24.5188C13.755 23.5936 12.3098 22.4376 10.9361 21.0639C9.56242 19.6902 8.40637 18.245 7.48121 16.805H11.9748C14.6425 16.805 16.805 14.6425 16.805 11.9748V7.4812C18.245 8.40636 19.6902 9.56242 21.0639 10.9361C22.4376 12.3098 23.5936 13.755 24.5188 15.195ZM26.0679 26.0679C24.9586 27.1773 22.8863 27.597 19.9832 26.7625C19.2336 26.547 18.4545 26.2532 17.6597 25.8835C19.2108 24.8884 20.7507 23.654 22.2024 22.2024C23.654 20.7507 24.8884 19.2108 25.8835 17.6596C26.2532 18.4545 26.547 19.2336 26.7625 19.9832C27.597 22.8863 27.1773 24.9586 26.0679 26.0679ZM25.8835 14.3404C24.8884 12.7892 23.654 11.2493 22.2024 9.79764C20.7507 8.34601 19.2108 7.1116 17.6597 6.11657C18.4545 5.74682 19.2336 5.45302 19.9832 5.23755C22.8863 4.40307 24.9586 4.82275 26.068 5.93208C27.1773 7.04141 27.597 9.1137 26.7625 12.0168C26.547 12.7664 26.2532 13.5455 25.8835 14.3404ZM14.3404 25.8835C12.7892 24.8884 11.2493 23.654 9.79765 22.2024C8.34601 20.7507 7.1116 19.2108 6.11658 17.6596C5.74683 18.4545 5.45303 19.2336 5.23756 19.9832C4.40308 22.8863 4.82276 24.9586 5.93209 26.0679C7.04142 27.1773 9.11371 27.597 12.0168 26.7625C12.7664 26.547 13.5455 26.2532 14.3404 25.8835ZM6.11658 14.3404C7.11161 12.7892 8.34602 11.2493 9.79767 9.79766C11.2493 8.34601 12.7892 7.1116 14.3404 6.11657C13.5455 5.74681 12.7664 5.45301 12.0168 5.23754C9.11369 4.40305 7.0414 4.82273 5.93207 5.93207C4.82274 7.0414 4.40306 9.11368 5.23755 12.0168C5.45301 12.7664 5.74682 13.5455 6.11658 14.3404Z" fill="white"/>
</svg>
