<svg width="123" height="26" viewBox="0 0 123 26" fill="none" xmlns="http://www.w3.org/2000/svg">
<path d="M118.675 17.9561C120.889 17.9561 122.625 19.6335 122.625 21.8975C122.625 24.1613 120.889 25.8389 118.675 25.8389C116.477 25.8387 114.742 24.1612 114.742 21.8975C114.742 19.6336 116.477 17.9562 118.675 17.9561ZM13.1387 0C16.8405 0.00010572 19.9578 1.22493 22.4629 3.70215C24.9958 6.17937 26.2489 9.24101 26.249 12.915C26.249 16.5893 24.9959 19.6516 22.4629 22.1289C19.93 24.6061 16.8127 25.8309 13.1387 25.8311C9.4366 25.8311 6.31864 24.6062 3.81348 22.1289C1.25264 19.6516 0 16.5893 0 12.915C0.000107534 9.24113 1.25244 6.17933 3.78516 3.70215C6.31815 1.22482 9.4366 0 13.1387 0ZM71.1748 0C74.8767 6.98615e-05 77.9939 1.22495 80.499 3.70215C83.0319 6.17937 84.285 9.24101 84.2852 12.915C84.2852 16.5893 83.032 19.6516 80.499 22.1289C77.9661 24.6061 74.8489 25.831 71.1748 25.8311C67.4727 25.8311 64.3548 24.6062 61.8496 22.1289C59.3167 19.6516 58.0645 16.5892 58.0645 12.915C58.0646 9.24105 59.3168 6.17936 61.8496 3.70215C64.3548 1.22482 67.4727 0 71.1748 0ZM49.4355 14.9473L54.418 0.556641H60.458L51.7451 25.5527H47.5977L42.1143 8.18359L36.6865 25.5527H32.5391L23.8271 0.584961H29.8672L34.7939 14.9473L39.2197 0.556641H45.0371L49.4355 14.9473ZM107.472 14.9473L112.454 0.556641H118.494L109.754 25.5527H105.606L100.123 8.18359L94.6953 25.5527H90.5479L81.8633 0.584961H87.9033L92.8301 14.9473L97.2559 0.556641H103.073L107.472 14.9473ZM118.675 18.623C116.874 18.6232 115.519 19.992 115.519 21.8975C115.519 23.8029 116.874 25.1707 118.675 25.1709C120.493 25.1709 121.849 23.803 121.849 21.8975C121.849 19.9919 120.493 18.623 118.675 18.623ZM118.856 19.7148C119.898 19.7148 120.443 20.171 120.443 20.9854C120.443 21.5879 120.063 21.9459 119.518 22.0762V22.0928C120.625 22.2719 120.278 23.9166 120.526 23.998V24.0469H119.419C119.204 23.8512 119.567 22.5166 118.526 22.5166H118.113V24.0469H117.022V19.7148H118.856ZM118.113 21.6533H118.576C119.006 21.6533 119.402 21.5552 119.402 21.083C119.402 20.6108 119.006 20.5293 118.576 20.5293H118.113V21.6533ZM13.1387 4.84375C11.0511 4.84375 9.297 5.62253 7.84961 7.20898C6.43012 8.79548 5.70616 10.6884 5.70605 12.915C5.70605 15.1418 6.43003 17.035 7.84961 18.5938C9.2692 20.1525 11.051 20.9316 13.1387 20.9316C15.2261 20.9315 16.9794 20.1524 18.4268 18.5938C19.8463 17.0628 20.5703 15.1697 20.5703 12.915C20.5702 10.6884 19.8463 8.79548 18.4268 7.20898C17.0073 5.62266 15.226 4.84387 13.1387 4.84375ZM71.1748 4.84375C69.0872 4.84375 67.3331 5.62247 65.8857 7.20898C64.4663 8.79548 63.7423 10.6884 63.7422 12.915C63.7422 15.1418 64.4662 17.035 65.8857 18.5938C67.3053 20.1525 69.0872 20.9316 71.1748 20.9316C73.2623 20.9316 75.0155 20.1524 76.4629 18.5938C77.8825 17.0628 78.6064 15.1697 78.6064 12.915C78.6063 10.6884 77.8824 8.79548 76.4629 7.20898C75.0434 5.62268 73.2622 4.84383 71.1748 4.84375Z" fill="white"/>
</svg>
