<svg width="32" height="32" viewBox="0 0 32 32" fill="none" xmlns="http://www.w3.org/2000/svg">
<path d="M12.3445 14.5223C11.3743 13.5519 10.8892 12.3333 10.8892 10.8667C10.8892 9.40001 11.3743 8.18146 12.3445 7.21101C13.3149 6.24079 14.5335 5.75568 16.0002 5.75568C17.4668 5.75568 18.6854 6.24079 19.6558 7.21101C20.6261 8.18146 21.1112 9.40001 21.1112 10.8667C21.1112 12.3333 20.6261 13.5519 19.6558 14.5223C18.6854 15.4926 17.4668 15.9777 16.0002 15.9777C14.5335 15.9777 13.3149 15.4926 12.3445 14.5223ZM5.3335 26.6667V23.3333C5.3335 22.5185 5.53905 21.8055 5.95016 21.1943C6.36127 20.5832 6.8965 20.1185 7.55583 19.8C9.00761 19.126 10.4261 18.6205 11.8112 18.2833C13.1965 17.9462 14.5928 17.7777 16.0002 17.7777C17.4075 17.7777 18.8001 17.9499 20.1778 18.2943C21.5556 18.6388 22.9705 19.1407 24.4225 19.8C25.0965 20.1185 25.6391 20.5832 26.0502 21.1943C26.4613 21.8055 26.6668 22.5185 26.6668 23.3333V26.6667H5.3335ZM7.55583 24.4443H24.4445V23.3333C24.4445 23.0149 24.3538 22.7149 24.1725 22.4333C23.9909 22.1518 23.7632 21.9407 23.4892 21.8C22.1409 21.1407 20.8705 20.6759 19.6778 20.4057C18.4854 20.1352 17.2595 20 16.0002 20C14.7408 20 13.5075 20.1352 12.3002 20.4057C11.0928 20.6759 9.8225 21.1407 8.48916 21.8C8.21494 21.9407 7.99083 22.1518 7.81683 22.4333C7.64283 22.7149 7.55583 23.0149 7.55583 23.3333V24.4443ZM18.0612 12.9277C18.6132 12.3759 18.8892 11.6889 18.8892 10.8667C18.8892 10.0445 18.6132 9.35745 18.0612 8.80568C17.5094 8.25368 16.8224 7.97768 16.0002 7.97768C15.1779 7.97768 14.4909 8.25368 13.9392 8.80568C13.3872 9.35745 13.1112 10.0445 13.1112 10.8667C13.1112 11.6889 13.3872 12.3759 13.9392 12.9277C14.4909 13.4797 15.1779 13.7557 16.0002 13.7557C16.8224 13.7557 17.5094 13.4797 18.0612 12.9277Z" fill="white"/>
</svg>
