<svg width="55" height="31" viewBox="0 0 55 31" fill="none" xmlns="http://www.w3.org/2000/svg">
<path d="M38.6768 0C47.2332 2.43636e-05 54.2196 6.91756 54.2197 15.4912C54.2197 24.065 47.2674 31 38.7109 31C34.0818 30.9999 29.9337 28.974 27.0879 25.7617C24.25 28.9638 20.107 30.9824 15.4912 30.9824C6.9348 30.9823 0 24.0476 0 15.4912C0.000108501 6.93487 6.93487 0.000109217 15.4912 0C20.1006 0 24.2435 2.0136 27.083 5.20801C29.9118 2.01021 34.0625 0 38.6768 0ZM23.0645 20.7705C20.8219 21.2535 18.2516 21.5469 15.5088 21.5469C12.7661 21.5469 10.1784 21.2707 7.95312 20.7705C8.4189 22.6335 9.09161 24.2727 9.9541 25.6182C11.5584 28.1538 13.5599 29.4307 15.5264 29.4307C17.4927 29.4305 19.4935 28.1536 21.0977 25.6182C21.9084 24.2727 22.5987 22.6335 23.0645 20.7705ZM1.86328 18.3721C2.79481 22.8572 5.89963 26.5665 10.0225 28.3262C8.26299 26.4286 6.9179 23.6339 6.24512 20.3564C4.43376 19.8217 2.93284 19.1484 1.86328 18.3721ZM29.1367 18.3721C28.0672 19.1484 26.5662 19.8217 24.7549 20.3564C24.0821 23.6339 22.737 26.4286 20.9775 28.3262C25.1004 26.5493 28.2052 22.8572 29.1367 18.3721ZM48.2334 17.1133C47.8885 17.01 47.5434 17.2164 47.457 17.5439C47.3535 17.8717 47.561 18.234 47.8887 18.3203C47.9577 18.3548 48.0267 18.3724 48.0957 18.3896C47.3539 20.2872 46.06 21.9087 44.3867 23.0645C42.679 24.2202 40.6608 24.8417 38.5908 24.8418C36.5207 24.8245 34.5021 24.203 32.8115 23.0127C31.7803 22.3027 30.8988 21.3936 30.1982 20.3672C30.0351 20.8597 29.8485 21.3414 29.6387 21.8105C30.342 22.6979 31.1633 23.4673 32.0869 24.1172C34.0017 25.4627 36.2962 26.1702 38.625 26.1875C40.9711 26.1875 43.2486 25.4973 45.1807 24.1689C47.0782 22.8751 48.5268 21.0287 49.3721 18.8896L49.5273 18.959C49.8378 19.097 50.2174 18.9589 50.3555 18.6484C50.4935 18.3379 50.3554 17.9583 50.0449 17.8203L49.6826 17.6475C49.2169 17.4233 48.7336 17.2513 48.2334 17.1133ZM15.4912 11.0234C12.5415 11.0235 9.83334 11.3513 7.59082 11.9033C7.40108 13.0418 7.31446 14.2492 7.31445 15.4912C7.31445 16.7333 7.41831 17.9415 7.59082 19.0801C9.83331 19.632 12.5416 19.959 15.4912 19.959C18.4411 19.959 21.1499 19.6321 23.3926 19.0801C23.5823 17.9415 23.668 16.7333 23.668 15.4912C23.668 14.2493 23.5651 13.0418 23.3926 11.9033C21.1499 11.3513 18.4411 11.0234 15.4912 11.0234ZM5.93457 12.3857C5.64131 12.4892 5.36488 12.5755 5.08887 12.6963C3.79504 13.1966 2.8463 13.7663 2.25977 14.3184C1.6907 14.8357 1.55281 15.2497 1.55273 15.4912C1.55273 15.75 1.67323 16.1472 2.25977 16.6992C2.84627 17.2512 3.79521 17.8028 5.08887 18.3203C5.36488 18.4238 5.6413 18.5274 5.93457 18.6309C5.79659 17.6304 5.74414 16.5782 5.74414 15.5088C5.74414 14.4392 5.81381 13.3863 5.93457 12.3857ZM25.0488 12.3691C25.1868 13.3696 25.2383 14.4218 25.2383 15.4912C25.2383 16.5608 25.1696 17.6137 25.0488 18.6143C25.3419 18.5108 25.6177 18.4244 25.8936 18.3037C27.1873 17.8035 28.1361 17.2336 28.7227 16.6816C29.3089 16.1299 29.4305 15.7334 29.4307 15.4746C29.4307 15.2158 29.3092 14.8186 28.7227 14.2666C28.1361 13.7146 27.1873 13.162 25.8936 12.6445C25.6178 12.5756 25.3418 12.4726 25.0488 12.3691ZM34.6748 7.64258C33.8813 7.64258 33.2256 9.2464 33.2256 11.2129C33.2256 13.1795 33.8813 14.7842 34.6748 14.7842C35.4682 14.7837 36.124 13.1792 36.124 11.2129C36.124 9.24667 35.4682 7.64302 34.6748 7.64258ZM42.7822 7.64258C41.9888 7.64289 41.3331 9.24659 41.333 11.2129C41.333 13.1793 41.9888 14.7839 42.7822 14.7842C43.593 14.7842 44.2314 13.1795 44.2314 11.2129C44.2314 9.2464 43.5757 7.64258 42.7822 7.64258ZM10.0059 2.67383C5.88287 4.43343 2.77726 8.14267 1.8457 12.6279C2.91527 11.8516 4.41618 11.1611 6.22754 10.6436C6.9176 7.36599 8.26356 4.57138 10.0059 2.67383ZM20.9775 2.67383C22.737 4.57137 24.0821 7.36609 24.7549 10.6436C26.5662 11.1783 28.0672 11.8517 29.1367 12.6279C28.2052 8.14275 25.1004 4.43347 20.9775 2.67383ZM15.4912 1.55273C13.5247 1.55282 11.5239 2.82942 9.9541 5.36523C9.09155 6.71081 8.4189 8.34978 7.95312 10.2129C10.1784 9.72991 12.766 9.45312 15.5088 9.45312C18.2516 9.45313 20.8219 9.72988 23.0645 10.2129C22.5987 8.36708 21.9087 6.71079 21.0635 5.36523C19.4591 2.82934 17.4578 1.55273 15.4912 1.55273Z" fill="white"/>
</svg>
